<mxfile host="app.diagrams.net" modified="2023-11-02T13:22:04.450Z" agent="Mozilla/5.0 (Windows NT 10.0; Win64; x64) AppleWebKit/537.36 (KHTML, like Gecko) Chrome/118.0.0.0 Safari/537.36" etag="wgyaa54ficFHAZtcg0vW" version="22.0.8" type="device">
  <diagram name="Pagina-1" id="PHXQRALsSrFSSDrQJn7x">
    <mxGraphModel dx="1434" dy="764" grid="1" gridSize="10" guides="1" tooltips="1" connect="1" arrows="1" fold="1" page="1" pageScale="1" pageWidth="827" pageHeight="1169" math="0" shadow="0">
      <root>
        <mxCell id="0" />
        <mxCell id="1" parent="0" />
        <mxCell id="8uY80IqU_mTONbdTU-cm-28" value="" style="edgeStyle=orthogonalEdgeStyle;rounded=0;orthogonalLoop=1;jettySize=auto;html=1;" edge="1" parent="1" source="8uY80IqU_mTONbdTU-cm-2" target="8uY80IqU_mTONbdTU-cm-27">
          <mxGeometry relative="1" as="geometry" />
        </mxCell>
        <mxCell id="8uY80IqU_mTONbdTU-cm-2" value="External Internet&lt;br&gt;x.x.x.x" style="rounded=1;whiteSpace=wrap;html=1;" vertex="1" parent="1">
          <mxGeometry x="354" y="70" width="120" height="60" as="geometry" />
        </mxCell>
        <mxCell id="8uY80IqU_mTONbdTU-cm-6" value="" style="edgeStyle=orthogonalEdgeStyle;rounded=0;orthogonalLoop=1;jettySize=auto;html=1;" edge="1" parent="1" target="8uY80IqU_mTONbdTU-cm-5">
          <mxGeometry relative="1" as="geometry">
            <mxPoint x="414" y="250" as="sourcePoint" />
          </mxGeometry>
        </mxCell>
        <mxCell id="8uY80IqU_mTONbdTU-cm-5" value="NAT router" style="whiteSpace=wrap;html=1;rounded=1;" vertex="1" parent="1">
          <mxGeometry x="354" y="300" width="120" height="60" as="geometry" />
        </mxCell>
        <mxCell id="8uY80IqU_mTONbdTU-cm-31" value="" style="edgeStyle=orthogonalEdgeStyle;rounded=0;orthogonalLoop=1;jettySize=auto;html=1;" edge="1" parent="1" source="8uY80IqU_mTONbdTU-cm-7" target="8uY80IqU_mTONbdTU-cm-5">
          <mxGeometry relative="1" as="geometry" />
        </mxCell>
        <mxCell id="8uY80IqU_mTONbdTU-cm-7" value="" style="rounded=1;whiteSpace=wrap;html=1;" vertex="1" parent="1">
          <mxGeometry x="296" y="400" width="236" height="340" as="geometry" />
        </mxCell>
        <mxCell id="8uY80IqU_mTONbdTU-cm-8" value="NAT Subnet" style="text;html=1;strokeColor=none;fillColor=none;align=center;verticalAlign=middle;whiteSpace=wrap;rounded=0;" vertex="1" parent="1">
          <mxGeometry x="354" y="420" width="100" height="30" as="geometry" />
        </mxCell>
        <mxCell id="8uY80IqU_mTONbdTU-cm-29" style="edgeStyle=orthogonalEdgeStyle;rounded=0;orthogonalLoop=1;jettySize=auto;html=1;entryX=1;entryY=0.5;entryDx=0;entryDy=0;" edge="1" parent="1" source="8uY80IqU_mTONbdTU-cm-11" target="8uY80IqU_mTONbdTU-cm-27">
          <mxGeometry relative="1" as="geometry">
            <Array as="points">
              <mxPoint x="678" y="220" />
            </Array>
          </mxGeometry>
        </mxCell>
        <mxCell id="8uY80IqU_mTONbdTU-cm-11" value="" style="rounded=1;whiteSpace=wrap;html=1;" vertex="1" parent="1">
          <mxGeometry x="560" y="400" width="236" height="340" as="geometry" />
        </mxCell>
        <mxCell id="8uY80IqU_mTONbdTU-cm-15" style="edgeStyle=orthogonalEdgeStyle;rounded=0;orthogonalLoop=1;jettySize=auto;html=1;" edge="1" parent="1">
          <mxGeometry relative="1" as="geometry">
            <mxPoint x="154" y="400" as="sourcePoint" />
            <mxPoint x="354" y="220" as="targetPoint" />
            <Array as="points">
              <mxPoint x="154" y="220" />
            </Array>
          </mxGeometry>
        </mxCell>
        <mxCell id="8uY80IqU_mTONbdTU-cm-12" value="" style="rounded=1;whiteSpace=wrap;html=1;" vertex="1" parent="1">
          <mxGeometry x="20" y="400" width="236" height="340" as="geometry" />
        </mxCell>
        <mxCell id="8uY80IqU_mTONbdTU-cm-17" value="Private Subnet (LAN )Subnet" style="text;html=1;strokeColor=none;fillColor=none;align=center;verticalAlign=middle;whiteSpace=wrap;rounded=0;" vertex="1" parent="1">
          <mxGeometry x="63" y="420" width="170" height="30" as="geometry" />
        </mxCell>
        <mxCell id="8uY80IqU_mTONbdTU-cm-18" value="IP:192.168.1.0/27" style="text;html=1;strokeColor=none;fillColor=none;align=center;verticalAlign=middle;whiteSpace=wrap;rounded=0;" vertex="1" parent="1">
          <mxGeometry x="63" y="460" width="117" height="30" as="geometry" />
        </mxCell>
        <mxCell id="8uY80IqU_mTONbdTU-cm-19" value="IP:192.168.1.32/27" style="text;html=1;strokeColor=none;fillColor=none;align=center;verticalAlign=middle;whiteSpace=wrap;rounded=0;" vertex="1" parent="1">
          <mxGeometry x="331.5" y="460" width="117" height="30" as="geometry" />
        </mxCell>
        <mxCell id="8uY80IqU_mTONbdTU-cm-20" value="IP:192.168.1.64/29" style="text;html=1;strokeColor=none;fillColor=none;align=center;verticalAlign=middle;whiteSpace=wrap;rounded=0;" vertex="1" parent="1">
          <mxGeometry x="610" y="450" width="117" height="30" as="geometry" />
        </mxCell>
        <mxCell id="8uY80IqU_mTONbdTU-cm-21" value="Aantal beschikbare hosts: 30" style="text;html=1;strokeColor=none;fillColor=none;align=center;verticalAlign=middle;whiteSpace=wrap;rounded=0;" vertex="1" parent="1">
          <mxGeometry x="73" y="530" width="160" height="30" as="geometry" />
        </mxCell>
        <mxCell id="8uY80IqU_mTONbdTU-cm-22" value="IDRange: &lt;span style=&quot;white-space: pre;&quot;&gt;&#x9;&lt;/span&gt;192.168.1.1 &lt;span style=&quot;white-space: pre;&quot;&gt;&#x9;&lt;/span&gt;&lt;span style=&quot;white-space: pre;&quot;&gt;&#x9;&lt;span style=&quot;white-space: pre;&quot;&gt;&#x9;&lt;/span&gt;&lt;/span&gt;- 192.168.1.30" style="text;html=1;strokeColor=none;fillColor=none;align=left;verticalAlign=middle;whiteSpace=wrap;rounded=0;" vertex="1" parent="1">
          <mxGeometry x="70" y="490" width="167" height="30" as="geometry" />
        </mxCell>
        <mxCell id="8uY80IqU_mTONbdTU-cm-23" value="IDRange: &lt;span style=&quot;white-space: pre;&quot;&gt;&#x9;&lt;/span&gt;192.168.1.33&amp;nbsp;&lt;span style=&quot;white-space: pre;&quot;&gt;&#x9;&lt;/span&gt;- &lt;span style=&quot;white-space: pre;&quot;&gt;&#x9;&lt;/span&gt;&lt;span style=&quot;white-space: pre;&quot;&gt;&#x9;&lt;/span&gt;&lt;span style=&quot;white-space: pre;&quot;&gt;&#x9;&lt;/span&gt;192.168.1.62" style="text;html=1;strokeColor=none;fillColor=none;align=left;verticalAlign=middle;whiteSpace=wrap;rounded=0;" vertex="1" parent="1">
          <mxGeometry x="340" y="490" width="167" height="30" as="geometry" />
        </mxCell>
        <mxCell id="8uY80IqU_mTONbdTU-cm-24" value="Aantal beschikbare hosts: 30" style="text;html=1;strokeColor=none;fillColor=none;align=center;verticalAlign=middle;whiteSpace=wrap;rounded=0;" vertex="1" parent="1">
          <mxGeometry x="340" y="520" width="160" height="30" as="geometry" />
        </mxCell>
        <mxCell id="8uY80IqU_mTONbdTU-cm-25" value="IDRange: &lt;span style=&quot;white-space: pre;&quot;&gt;&#x9;&lt;/span&gt;192.168.1.65&amp;nbsp;&lt;span style=&quot;white-space: pre;&quot;&gt;&#x9;&lt;/span&gt;- &lt;span style=&quot;white-space: pre;&quot;&gt;&#x9;&lt;/span&gt;&lt;span style=&quot;white-space: pre;&quot;&gt;&#x9;&lt;/span&gt;&lt;span style=&quot;white-space: pre;&quot;&gt;&#x9;&lt;/span&gt;192.168.1.70" style="text;html=1;strokeColor=none;fillColor=none;align=left;verticalAlign=middle;whiteSpace=wrap;rounded=0;" vertex="1" parent="1">
          <mxGeometry x="610" y="490" width="167" height="30" as="geometry" />
        </mxCell>
        <mxCell id="8uY80IqU_mTONbdTU-cm-26" value="Aantal beschikbare hosts: 6" style="text;html=1;strokeColor=none;fillColor=none;align=center;verticalAlign=middle;whiteSpace=wrap;rounded=0;" vertex="1" parent="1">
          <mxGeometry x="613.5" y="520" width="160" height="30" as="geometry" />
        </mxCell>
        <mxCell id="8uY80IqU_mTONbdTU-cm-27" value="Router" style="whiteSpace=wrap;html=1;rounded=1;" vertex="1" parent="1">
          <mxGeometry x="354" y="190" width="120" height="60" as="geometry" />
        </mxCell>
        <mxCell id="8uY80IqU_mTONbdTU-cm-30" value="Internet gateway subnet" style="text;html=1;strokeColor=none;fillColor=none;align=center;verticalAlign=middle;whiteSpace=wrap;rounded=0;" vertex="1" parent="1">
          <mxGeometry x="610" y="420" width="140" height="30" as="geometry" />
        </mxCell>
      </root>
    </mxGraphModel>
  </diagram>
</mxfile>
